# xmcd
#
# Track frame offsets: 
#        150
#        23257
#        45556
#        62165
#        78771
#        101565
#        120683
#        137237
#        156308
#        176290
#        194453
#        213446
#        236863
#        255157
#        277540
#
# Disc length: 4018 seconds
#
# Revision: 0
# Processed by: cddbd v1.5.2PL0 Copyright (c) Steve Scherf et al.
# Submitted via: ExactAudioCopy v0.95a5
#
DISCID=bd0fb00f
DTITLE=熊天平 - 一个人流浪
DYEAR=1999
DGENRE=Pop
TTITLE0=一个人流浪
TTITLE1=最后还是会
TTITLE2=我是忙碌的
TTITLE3=我只能相信你
TTITLE4=夜夜夜夜
TTITLE5=I WISH
TTITLE6=地平线
TTITLE7=爱情多瑙河
TTITLE8=心碎的冰咖啡
TTITLE9=左手的情诗
TTITLE10=摆脱
TTITLE11=愚人码头
TTITLE12=爱情电影
TTITLE13=火柴天堂
TTITLE14=雪候鸟
EXTD=
EXTT0=
EXTT1=
EXTT2=
EXTT3=
EXTT4=
EXTT5=
EXTT6=
EXTT7=
EXTT8=
EXTT9=
EXTT10=
EXTT11=
EXTT12=
EXTT13=
EXTT14=
PLAYORDER=
